REM DIRINDEX 1\2,1\3,1\4,1\5\6,1\5\7,1\8
REM DIRNAME cjc115,folder01,folder02,folder03,folder04,folder05,folder06,folder07
TITLE ""
FILE "113 Åy113ÅzUnit6 (1285 congregate_1296 disperse).mp3" MP3
  TRACK 01 AUDIO
    TITLE "0:"
    INDEX 01 00:00:00
  TRACK 02 AUDIO
    TITLE "2:cjc115_4378"
    INDEX 01 00:00:07
  TRACK 03 AUDIO
    TITLE "0:"
    INDEX 01 00:01:24
  TRACK 04 AUDIO
    TITLE "3:cjc115_4379"
    INDEX 01 00:01:34
  TRACK 05 AUDIO
    TITLE "0:"
    INDEX 01 00:02:47
  TRACK 06 AUDIO
    TITLE "4:cjc115_4380"
    INDEX 01 00:02:49
  TRACK 07 AUDIO
    TITLE "0:"
    INDEX 01 00:06:49
  TRACK 08 AUDIO
    TITLE "2:cjc115_4381"
    INDEX 01 00:07:56
  TRACK 09 AUDIO
    TITLE "0:"
    INDEX 01 00:08:64
  TRACK 10 AUDIO
    TITLE "3:cjc115_4382"
    INDEX 01 00:08:72
  TRACK 11 AUDIO
    TITLE "0:"
    INDEX 01 00:10:04
  TRACK 12 AUDIO
    TITLE "4:cjc115_4383"
    INDEX 01 00:10:10
  TRACK 13 AUDIO
    TITLE "0:"
    INDEX 01 00:14:33
  TRACK 14 AUDIO
    TITLE "2:cjc115_4384"
    INDEX 01 00:15:42
  TRACK 15 AUDIO
    TITLE "0:"
    INDEX 01 00:16:69
  TRACK 16 AUDIO
    TITLE "3:cjc115_4385"
    INDEX 01 00:17:00
  TRACK 17 AUDIO
    TITLE "0:"
    INDEX 01 00:19:01
  TRACK 18 AUDIO
    TITLE "4:cjc115_4386"
    INDEX 01 00:19:15
  TRACK 19 AUDIO
    TITLE "0:"
    INDEX 01 00:21:49
  TRACK 20 AUDIO
    TITLE "2:cjc115_4387"
    INDEX 01 00:22:56
  TRACK 21 AUDIO
    TITLE "0:"
    INDEX 01 00:24:02
  TRACK 22 AUDIO
    TITLE "3:cjc115_4388"
    INDEX 01 00:24:06
  TRACK 23 AUDIO
    TITLE "0:"
    INDEX 01 00:25:33
  TRACK 24 AUDIO
    TITLE "4:cjc115_4389"
    INDEX 01 00:25:48
  TRACK 25 AUDIO
    TITLE "0:"
    INDEX 01 00:28:23
  TRACK 26 AUDIO
    TITLE "2:cjc115_4390"
    INDEX 01 00:29:29
  TRACK 27 AUDIO
    TITLE "0:"
    INDEX 01 00:30:46
  TRACK 28 AUDIO
    TITLE "3:cjc115_4391"
    INDEX 01 00:30:54
  TRACK 29 AUDIO
    TITLE "0:"
    INDEX 01 00:31:63
  TRACK 30 AUDIO
    TITLE "4:cjc115_4392"
    INDEX 01 00:31:71
  TRACK 31 AUDIO
    TITLE "0:"
    INDEX 01 00:35:25
  TRACK 32 AUDIO
    TITLE "2:cjc115_4393"
    INDEX 01 00:36:35
  TRACK 33 AUDIO
    TITLE "0:"
    INDEX 01 00:37:48
  TRACK 34 AUDIO
    TITLE "3:cjc115_4394"
    INDEX 01 00:37:56
  TRACK 35 AUDIO
    TITLE "0:"
    INDEX 01 00:39:29
  TRACK 36 AUDIO
    TITLE "4:cjc115_4395"
    INDEX 01 00:39:39
  TRACK 37 AUDIO
    TITLE "0:"
    INDEX 01 00:41:65
  TRACK 38 AUDIO
    TITLE "2:cjc115_4396"
    INDEX 01 00:42:72
  TRACK 39 AUDIO
    TITLE "0:"
    INDEX 01 00:44:01
  TRACK 40 AUDIO
    TITLE "3:cjc115_4397"
    INDEX 01 00:44:12
  TRACK 41 AUDIO
    TITLE "0:"
    INDEX 01 00:47:28
  TRACK 42 AUDIO
    TITLE "4:cjc115_4398"
    INDEX 01 00:47:40
  TRACK 43 AUDIO
    TITLE "0:"
    INDEX 01 00:52:14
  TRACK 44 AUDIO
    TITLE "2:cjc115_4399"
    INDEX 01 00:53:21
  TRACK 45 AUDIO
    TITLE "0:"
    INDEX 01 00:54:34
  TRACK 46 AUDIO
    TITLE "3:cjc115_4400"
    INDEX 01 00:54:40
  TRACK 47 AUDIO
    TITLE "0:"
    INDEX 01 00:56:65
  TRACK 48 AUDIO
    TITLE "4:cjc115_4401"
    INDEX 01 00:56:72
  TRACK 49 AUDIO
    TITLE "0:"
    INDEX 01 01:01:33
  TRACK 50 AUDIO
    TITLE "2:cjc115_4402"
    INDEX 01 01:02:40
  TRACK 51 AUDIO
    TITLE "0:"
    INDEX 01 01:03:69
  TRACK 52 AUDIO
    TITLE "3:cjc115_4403"
    INDEX 01 01:04:00
  TRACK 53 AUDIO
    TITLE "0:"
    INDEX 01 01:06:10
  TRACK 54 AUDIO
    TITLE "4:cjc115_4404"
    INDEX 01 01:06:28
  TRACK 55 AUDIO
    TITLE "0:"
    INDEX 01 01:10:20
  TRACK 56 AUDIO
    TITLE "2:cjc115_4405"
    INDEX 01 01:11:29
  TRACK 57 AUDIO
    TITLE "0:"
    INDEX 01 01:12:32
  TRACK 58 AUDIO
    TITLE "3:cjc115_4406"
    INDEX 01 01:12:36
  TRACK 59 AUDIO
    TITLE "0:"
    INDEX 01 01:14:45
  TRACK 60 AUDIO
    TITLE "4:cjc115_4407"
    INDEX 01 01:14:55
  TRACK 61 AUDIO
    TITLE "0:"
    INDEX 01 01:17:47
  TRACK 62 AUDIO
    TITLE "2:cjc115_4408"
    INDEX 01 01:18:56
  TRACK 63 AUDIO
    TITLE "0:"
    INDEX 01 01:19:72
  TRACK 64 AUDIO
    TITLE "3:cjc115_4409"
    INDEX 01 01:20:04
  TRACK 65 AUDIO
    TITLE "0:"
    INDEX 01 01:22:31
  TRACK 66 AUDIO
    TITLE "4:cjc115_4410"
    INDEX 01 01:22:41
  TRACK 67 AUDIO
    TITLE "0:"
    INDEX 01 01:26:66
  TRACK 68 AUDIO
    TITLE "2:cjc115_4411"
    INDEX 01 01:28:00
  TRACK 69 AUDIO
    TITLE "0:"
    INDEX 01 01:29:25
  TRACK 70 AUDIO
    TITLE "3:cjc115_4412"
    INDEX 01 01:29:33
  TRACK 71 AUDIO
    TITLE "0:"
    INDEX 01 01:31:51
  TRACK 72 AUDIO
    TITLE "4:cjc115_4413"
    INDEX 01 01:31:59
  TRACK 73 AUDIO
    TITLE "0:"
    INDEX 01 01:35:10
